<?xml version="1.0" encoding="utf-8"?>
<!-- Generator: Adobe Illustrator 27.5.0, SVG Export Plug-In . SVG Version: 6.00 Build 0)  -->
<svg version="1.1" xmlns="http://www.w3.org/2000/svg" xmlns:xlink="http://www.w3.org/1999/xlink" x="0px" y="0px"
	 viewBox="0 0 500 500" style="enable-background:new 0 0 500 500;" xml:space="preserve">
<g id="Background_Simple">
	<g>
		<path style="opacity:0.7;fill:#FFFFFF;" d="M67.931,167.086c0,0-27.877,71.988,11.297,144.503
			c39.174,72.516,119.879,110.802,184.469,143.548c64.59,32.746,131.661,16.799,163.534-36.838
			c31.873-53.637-11.845-91.928-11.897-168.418c-0.051-76.49,11.447-96.742-29.963-161.364
			c-41.41-64.623-143.059-78.925-219.9-30.996C88.631,105.45,67.931,167.086,67.931,167.086z"/>
	</g>
	<g>
		<path style="fill:#92E3A9;" d="M233.266,45.004c124.035-11.047,124.245,58.934,180.132,124.129
			c55.887,65.195,67.847,94.754,46.779,169.908c-21.068,75.154-92.064,134.069-179.892,100.688
			c-87.828-33.381-138.14-1.325-193.537-30.967c-55.397-29.643-75.969-86.913-35.419-154.41S80.325,58.625,233.266,45.004z"/>
		<path style="opacity:0.7;fill:#FFFFFF;" d="M233.266,45.004c124.035-11.047,124.245,58.934,180.132,124.129
			c55.887,65.195,67.847,94.754,46.779,169.908c-21.068,75.154-92.064,134.069-179.892,100.688
			c-87.828-33.381-138.14-1.325-193.537-30.967c-55.397-29.643-75.969-86.913-35.419-154.41S80.325,58.625,233.266,45.004z"/>
	</g>
</g>
<g id="World">
	<g>
		<g>
			<path style="fill:none;stroke:#263238;stroke-linecap:round;stroke-linejoin:round;stroke-miterlimit:10;" d="M305.802,188.319
				c-1.389,2.636-2.94,5.135-4.633,7.482c-9.108,12.669-22.332,21.136-36.811,24.53c-7.185,1.683-14.683,2.115-22.145,1.188
				c-7.361-0.908-14.682-3.148-21.633-6.812c-1.389-0.732-2.742-1.514-4.051-2.333c-1.305-0.809-2.569-1.664-3.787-2.556
				c-1.483-1.075-2.901-2.21-4.263-3.402c-0.007-0.003-0.01-0.014-0.017-0.017c-0.084-0.07-0.167-0.14-0.244-0.223
				c-0.017-0.017-0.03-0.025-0.03-0.025c-7.995-7.058-13.907-15.911-17.448-25.617c-1.452-3.979-2.512-8.113-3.134-12.326
				c-1.93-12.828,0.076-26.373,6.586-38.723c9.634-18.276,26.968-29.865,45.901-32.884c13.002-2.08,26.776-0.117,39.321,6.497
				c11.851,6.247,20.896,15.744,26.609,26.82C315.175,147.611,315.802,169.349,305.802,188.319z"/>
			<path style="fill:none;stroke:#263238;stroke-linecap:round;stroke-linejoin:round;stroke-miterlimit:10;" d="M306.024,129.917
				c-0.678,0.599-1.776,0.787-3.516,0.248c-6.251-1.934-9.497,5.09-8.401,5.168c1.1,0.071,1.86,3.238-0.382,4.761
				c-2.252,1.527-7.497,1.018-7.152,2.57c0.352,1.555,2.916,5.466,2.916,5.466s2.3-1.079,2.96,0.268
				c0.649,1.35,1.389,4.997-0.295,5.659c-1.678,0.666-1.318,2.501-1.318,2.501l-5.056-0.296c-0.813,3.732-0.813,3.732-0.813,3.732
				l-3.103,2.602l-1.665-0.878c0,0-1.462-3.812-2.872-1.514c-1.399,2.295-1.399,2.295-1.399,2.295l-0.896,2.06
				c0,0,3.63,0.811,4.537,2.392c0.9,1.577,0.9,1.577,0.9,1.577l7.885,2.218l0.616,2.263l1.456,0.768l0.369,3.942l2.943,1.543
				l2.944,0.234l3.587-4.975c0,0,1.55,3.057,1.897,4.343c0.354,1.289-0.666,4.499-0.666,4.499s-1.132,2.212-2.559,2.958
				c-1.43,0.736-3.174-1.234-3.049,1.175c0.119,2.406,0.119,2.406,0.119,2.406l-0.364,2.668l2.211,1.166l2.097,1.105l1.217,0.96"/>
			<path style="fill:none;stroke:#263238;stroke-linecap:round;stroke-linejoin:round;stroke-miterlimit:10;" d="M187.606,168.207
				l0.883,0.172l3.967-4.421l3.604-1.46c0,0,1.517,0.8,2.582,1.361c1.065,0.562,2.135-2.122,2.135-2.122s0,0-0.685-0.628
				c-0.692-0.632,0.315-4.339,0.315-4.339s4.374,0.609,5.956,0.418c1.582-0.191,2.335-0.13,3.038-1.465
				c0.704-1.335,0.171-1.615,0.171-1.615s1.155-3.483,1.162-5.211c0.006-1.728,2.575,1.357,2.575,1.357l1.262-2.393l2.826-2.24
				l3.682-2.556c0,0,5.351-1.538,5.766-0.381c0.408,1.154,2.58,2.101,2.58,2.101l-0.92,1.746c0,0-1.179,3.643-2.324,4.409
				c-1.148,0.756,0.464,6.344,0.464,6.344s-2.081,2.004-2.782,3.332c-0.704,1.335-1.378,1.324-1.378,1.324l-3.494-0.481
				c0,0-3.987-2.782-5.321-3.486c0,0-2.341,2.513-2.107,3.998c0.237,1.495-0.824,1.564-0.824,1.564l3.688,3.348l0.599,2.099
				l2.193,2.948l-0.711,1.348l-1.34,2.541l0.592,2.767l2.389,3.215l1.338,2.919l1.46,4.715l0.469,2.608l4.298,1.93l1.9-1.023
				l3.697-1.997l1.749,3.481l0.689,1.75l-3.08,2.787l1.093,2.273l0.357,2.575l-0.306,3.44l-0.634,2.199l2.568,1.354l4.562-0.662
				l-0.16-3.487c0,0,2.807-1.665,4.745-2.22c1.945-0.551,1.746-0.518,4.141-1.254c2.392-0.746,1.655-0.54,2.805-0.925
				c1.14-0.381,2.271-0.844,2.271-0.844l0.085-3.625l1.894-6.583c0,0,0,0,1.17,0.772c1.166,0.778,2.904-2.044,2.904-2.044
				l0.817-5.014l-2.306-1.215c0,0-2.148-0.452-4.169-0.492l-3.296-1.738l-2.752-4.862c0,0-1.33-1.382-2.292-3.25l1.265-2.4
				l1.56-2.959l1.631,0.86l1.503,0.792l1.591,0.839l2.596-1.69l1.451-4.059c0,0,0.661-0.599,1.961-1.775
				c1.304-1.182,2.212,0.985,2.212,0.985s0,0,2.141-2.688c2.147-2.684,0.372-1.441-0.727-2.821c-1.099-1.38-2.306-1.215-2.306-1.215
				l-3.912-4.672l-3.068,1.114c0,0,0,0-0.437,1.467c-0.434,1.477,0,0-4.509-1.774l-1.486-4.307l0.892-1.038l0.216-4.021
				c0,0-2.598-1.266-4.562-2.327c-1.968-1.072-2.421-3.774-2.421-3.774c-0.262-1.758,0.887-4.314,0.887-4.314l-1.037-2.838
				l-3.694-7.211l0.625-3.245l2.143-1.352l0.85-4.325l-3.859-3.662l1.549-2.939l1.102-2.09l1.286-2.44l0.962-4.946
				c0,0-0.243-0.912-0.476-1.94"/>
			<path style="fill:none;stroke:#263238;stroke-linecap:round;stroke-linejoin:round;stroke-miterlimit:10;" d="M208.479,206.415
				c-0.1-0.121-0.21-0.206-0.261-0.241c-0.017-0.017-0.03-0.025-0.03-0.025l1.116-2.117l-0.447-3.957l-1.47-0.775
				c0,0,1.79-1.779,1.684-3.195c-0.109-1.427,1.126-2.137,1.126-2.137l-0.479-2.639c0,0,0,0-0.802-0.423s-0.315-2.638-0.315-2.638
				l-3.42,0.67c0,0,0,0-0.933,3.6l-3.476,0.89c0,0-1.729-1.247-1.672-2.923c0.063-1.672,0.704-1.335,0.704-1.335l3.218-0.009
				l2.004-3.802l-0.401-1.822l-1.449-0.764"/>
			<path style="fill:none;stroke:#263238;stroke-linecap:round;stroke-linejoin:round;stroke-miterlimit:10;" d="M203.165,182.766
				l0.014,0.007c0.162,0.085-0.867-4.549-0.867-4.549s-1.277-3.395-2.679-3.971c-1.399-0.565-4.56,1.542-4.56,1.542l-3.529,0.5
				l-0.803,4.237"/>
			<path style="fill:none;stroke:#263238;stroke-linecap:round;stroke-linejoin:round;stroke-miterlimit:10;" d="M217.372,209.794
				l-0.843,2.579c-1.305-0.809-2.569-1.664-3.787-2.556l3.946-3.907l-0.334-4.268c0,0-0.726-1.58,0.668-1.267
				s2.35-0.209,3.181-1.132c0.824-0.927,0.717-1.328,2.841-0.208c2.13,1.123,2.261,1.872,2.57,2.724
				c0.313,0.845-3.653,6.93-3.653,6.93l1.402,0.739c0,0-0.822,1.902,0.571,2.317L217.372,209.794z"/>
			<path style="fill:none;stroke:#263238;stroke-linecap:round;stroke-linejoin:round;stroke-miterlimit:10;" d="M264.358,220.331
				c-7.185,1.683-14.683,2.115-22.145,1.188l0.765-2.775c0,0-0.724-1.209,2.205-0.948c2.933,0.254,5.159,0.557,5.159,0.557
				l2.328-4.416l4.094-0.004l1.335,0.704l1.154,1.685l2.485,2.395C261.737,218.717,263.18,219.494,264.358,220.331z"/>
			<path style="fill:none;stroke:#263238;stroke-linecap:round;stroke-linejoin:round;stroke-miterlimit:10;" d="M262.325,178.167
				l2.455-0.778l2.151,2.17c0,0,4.253,0.552,2.595,2.404c-1.658,1.852-4.828,1.831-4.828,1.831l-1.147,2.176l-2.016-2.426
				l-1.016-1.953l0.757-1.435L262.325,178.167z"/>
			<path style="fill:none;stroke:#263238;stroke-linecap:round;stroke-linejoin:round;stroke-miterlimit:10;" d="M265.857,168.88
				c0,0-0.93,1.117-1.085,2.058c-0.155,0.941-0.155,0.941-0.155,0.941l-4-2.109l2.175-4.126L265.857,168.88z"/>
		</g>
		<g>
			<path style="fill:none;stroke:#263238;stroke-linecap:round;stroke-linejoin:round;stroke-miterlimit:10;" d="M399.437,82.041
				c0,3.823-3.099,6.922-6.922,6.922c-3.823,0-6.922-3.099-6.922-6.922c0-3.823,3.099-6.922,6.922-6.922
				C396.338,75.119,399.437,78.218,399.437,82.041z"/>
			<path style="fill:none;stroke:#263238;stroke-linecap:round;stroke-linejoin:round;stroke-miterlimit:10;" d="M360.291,191.037
				c0,2.415-1.958,4.372-4.372,4.372c-2.415,0-4.372-1.958-4.372-4.372c0-2.415,1.958-4.373,4.372-4.373
				C358.334,186.665,360.291,188.622,360.291,191.037z"/>
			<path style="fill:none;stroke:#263238;stroke-linecap:round;stroke-linejoin:round;stroke-miterlimit:10;" d="M234.748,52.52
				c0,2.415-1.958,4.373-4.372,4.373c-2.415,0-4.373-1.958-4.373-4.373c0-2.415,1.958-4.372,4.373-4.372
				C232.791,48.147,234.748,50.105,234.748,52.52z"/>
			
				<circle style="fill:none;stroke:#263238;stroke-linecap:round;stroke-linejoin:round;stroke-miterlimit:10;" cx="462.475" cy="184.55" r="10.859"/>
			
				<circle style="fill:none;stroke:#263238;stroke-linecap:round;stroke-linejoin:round;stroke-miterlimit:10;" cx="89.029" cy="76.703" r="6.688"/>
			
				<circle style="fill:none;stroke:#263238;stroke-linecap:round;stroke-linejoin:round;stroke-miterlimit:10;" cx="54.292" cy="211.896" r="11.676"/>
			
				<circle style="fill:none;stroke:#263238;stroke-linecap:round;stroke-linejoin:round;stroke-miterlimit:10;" cx="157.986" cy="132.273" r="3.37"/>
			<path style="fill:none;stroke:#263238;stroke-linecap:round;stroke-linejoin:round;stroke-miterlimit:10;" d="M233.926,82.109
				c0.274,2.285,0.548,4.569,0.822,6.854"/>
			<path style="fill:none;stroke:#263238;stroke-linecap:round;stroke-linejoin:round;stroke-miterlimit:10;" d="M231.377,60.861
				c0.685,5.712,1.371,11.424,2.056,17.135"/>
			<path style="fill:none;stroke:#263238;stroke-linecap:round;stroke-linejoin:round;stroke-miterlimit:10;" d="M318.802,118.712
				c-1.849,0.832-3.704,1.648-5.568,2.445"/>
			<path style="fill:none;stroke:#263238;stroke-linecap:round;stroke-linejoin:round;stroke-miterlimit:10;" d="M357.497,99.442
				c-11.199,5.793-22.361,11.669-33.784,17.014"/>
			<path style="fill:none;stroke:#263238;stroke-linecap:round;stroke-linejoin:round;stroke-miterlimit:10;" d="M374.14,91.007
				c-4.187,2.056-8.348,4.166-12.497,6.297"/>
			<path style="fill:none;stroke:#263238;stroke-linecap:round;stroke-linejoin:round;stroke-miterlimit:10;" d="M381.677,87.388
				c-1.164,0.545-2.325,1.095-3.484,1.651"/>
			<path style="fill:none;stroke:#263238;stroke-linecap:round;stroke-linejoin:round;stroke-miterlimit:10;" d="M331.884,170.249
				c-4.115-0.486-8.228-0.981-12.34-1.488"/>
			<path style="fill:none;stroke:#263238;stroke-linecap:round;stroke-linejoin:round;stroke-miterlimit:10;" d="M391.624,176.919
				c-18.315-2.007-36.625-4.053-54.935-6.108"/>
			<path style="fill:none;stroke:#263238;stroke-linecap:round;stroke-linejoin:round;stroke-miterlimit:10;" d="M447.027,182.844
				c-16.883-1.753-33.759-3.56-50.632-5.402"/>
			<path style="fill:none;stroke:#263238;stroke-linecap:round;stroke-linejoin:round;stroke-miterlimit:10;" d="M338.594,184.99
				c-7.398-2.298-15.02-3.995-22.205-6.935"/>
			<path style="fill:none;stroke:#263238;stroke-linecap:round;stroke-linejoin:round;stroke-miterlimit:10;" d="M348.389,188.564
				c-1.68-0.736-3.389-1.404-5.117-2.021"/>
			<path style="fill:none;stroke:#263238;stroke-linecap:round;stroke-linejoin:round;stroke-miterlimit:10;" d="M165.035,134.16
				c6.456,1.728,12.912,3.457,19.368,5.185"/>
			<path style="fill:none;stroke:#263238;stroke-linecap:round;stroke-linejoin:round;stroke-miterlimit:10;" d="M156.078,112.243
				c10.387,5.78,20.83,11.472,31.528,16.66"/>
			<path style="fill:none;stroke:#263238;stroke-linecap:round;stroke-linejoin:round;stroke-miterlimit:10;" d="M108.579,86.736
				c14.817,7.168,29.155,15.263,43.518,23.287"/>
			<path style="fill:none;stroke:#263238;stroke-linecap:round;stroke-linejoin:round;stroke-miterlimit:10;" d="M100.124,82.578
				c1.212,0.585,2.421,1.174,3.629,1.766"/>
			<path style="fill:none;stroke:#263238;stroke-linecap:round;stroke-linejoin:round;stroke-miterlimit:10;" d="M177.33,185.469
				c1.583-0.363,3.165-0.728,4.747-1.096"/>
			<path style="fill:none;stroke:#263238;stroke-linecap:round;stroke-linejoin:round;stroke-miterlimit:10;" d="M101.972,201.515
				c23.491-5.199,46.981-10.427,70.611-14.967"/>
			<path style="fill:none;stroke:#263238;stroke-linecap:round;stroke-linejoin:round;stroke-miterlimit:10;" d="M70.735,208.354
				c9.065-1.946,18.12-3.938,27.172-5.94"/>
		</g>
	</g>
</g>
<g id="Books">
	<g>
		<g>
			<g>
				<path style="fill:#FFFFFF;" d="M457.343,293.236v-2.633h-45.63h-17.444h-78.222c-2.66,0-5.085,1.082-6.831,2.829
					c-1.747,1.747-2.829,4.172-2.829,6.831c0,5.332,4.328,9.66,9.661,9.66h78.222h17.444h45.63v-2.633h-3.395v-14.054H457.343z"/>
				<path style="opacity:0.6;fill:#92E3A9;" d="M394.165,293.236h17.548h42.235h3.395v-2.633h-45.63h-17.444h-78.222
					c-2.66,0-5.085,1.082-6.831,2.829c-1.747,1.747-2.829,4.172-2.829,6.831c0,5.332,4.328,9.66,9.661,9.66h78.222h17.444h45.63
					v-2.633h-3.395h-42.235h-17.548c-3.885,0-7.027-3.142-7.027-7.027c0-1.943,0.782-3.703,2.06-4.967
					C390.463,294.019,392.223,293.236,394.165,293.236z"/>
				<path style="opacity:0.6;fill:#92E3A9;" d="M389.198,295.296c-1.278,1.264-2.06,3.025-2.06,4.967
					c0,3.885,3.142,7.027,7.027,7.027h63.178v2.633h-63.074c-5.332,0-9.66-4.328-9.66-9.66c0-2.66,1.082-5.085,2.829-6.831
					c1.747-1.747,4.172-2.829,6.831-2.829h63.074v2.633h-63.178C392.223,293.236,390.463,294.019,389.198,295.296z"/>
				<path style="fill:none;stroke:#263238;stroke-linecap:round;stroke-linejoin:round;stroke-miterlimit:10;" d="M389.198,295.296
					c-1.278,1.264-2.06,3.025-2.06,4.967c0,3.885,3.142,7.027,7.027,7.027h63.178v2.633h-63.074c-5.332,0-9.66-4.328-9.66-9.66
					c0-2.66,1.082-5.085,2.829-6.831c1.747-1.747,4.172-2.829,6.831-2.829h63.074v2.633h-63.178
					C392.223,293.236,390.463,294.019,389.198,295.296z"/>
				
					<line style="fill:none;stroke:#263238;stroke-linecap:round;stroke-linejoin:round;stroke-miterlimit:10;" x1="453.948" y1="293.236" x2="453.948" y2="307.29"/>
				
					<line style="fill:none;stroke:#263238;stroke-linecap:round;stroke-linejoin:round;stroke-miterlimit:10;" x1="453.948" y1="295.791" x2="420.859" y2="295.791"/>
				
					<line style="fill:none;stroke:#263238;stroke-linecap:round;stroke-linejoin:round;stroke-miterlimit:10;" x1="418.109" y1="295.791" x2="414.67" y2="295.791"/>
				
					<line style="fill:none;stroke:#263238;stroke-linecap:round;stroke-linejoin:round;stroke-miterlimit:10;" x1="398.825" y1="300.263" x2="429.111" y2="300.263"/>
				
					<line style="fill:none;stroke:#263238;stroke-linecap:round;stroke-linejoin:round;stroke-miterlimit:10;" x1="432.894" y1="300.263" x2="441.027" y2="300.263"/>
				
					<line style="fill:none;stroke:#263238;stroke-linecap:round;stroke-linejoin:round;stroke-miterlimit:10;" x1="443.409" y1="300.263" x2="453.948" y2="300.263"/>
				
					<line style="fill:none;stroke:#263238;stroke-linecap:round;stroke-linejoin:round;stroke-miterlimit:10;" x1="450.3" y1="304.203" x2="439.083" y2="304.203"/>
				
					<line style="fill:none;stroke:#263238;stroke-linecap:round;stroke-linejoin:round;stroke-miterlimit:10;" x1="407.45" y1="304.203" x2="405.215" y2="304.203"/>
				<path style="fill:none;stroke:#263238;stroke-linecap:round;stroke-linejoin:round;stroke-miterlimit:10;" d="M390.587,294.216
					c0,0,2.923,2.795,2.923,6.047s-2.923,6.042-2.923,6.042"/>
				<path style="fill:none;stroke:#263238;stroke-linecap:round;stroke-linejoin:round;stroke-miterlimit:10;" d="M411.713,309.924
					h-95.666c-5.332,0-9.661-4.328-9.661-9.66c0-2.66,1.082-5.085,2.829-6.831c1.747-1.747,4.172-2.829,6.831-2.829h95.666"/>
			</g>
			<g>
				<path style="fill:#FFFFFF;" d="M319.423,326.846v2.633h97.778h17.444h26.074c2.66,0,5.085-1.082,6.831-2.829
					c1.747-1.747,2.829-4.172,2.829-6.831c0-5.332-4.328-9.66-9.66-9.66h-26.074h-17.444h-97.778v2.633h3.395v14.054H319.423z"/>
				<path style="opacity:0.6;fill:#92E3A9;" d="M434.75,326.846h-17.548h-94.384h-3.395v2.633h97.778h17.444h26.074
					c2.66,0,5.085-1.082,6.831-2.829c1.747-1.747,2.829-4.172,2.829-6.831c0-5.332-4.328-9.66-9.66-9.66h-26.074h-17.444h-97.778
					v2.633h3.395h94.384h17.548c3.885,0,7.027,3.142,7.027,7.027c0,1.943-0.782,3.703-2.06,4.967
					C438.452,326.064,436.692,326.846,434.75,326.846z"/>
				<path style="fill:#92E3A9;" d="M460.72,310.159h-26.074c5.332,0,9.66,4.328,9.66,9.66c0,2.66-1.082,5.085-2.829,6.831
					c-1.747,1.747-4.172,2.829-6.831,2.829h26.074c2.66,0,5.085-1.082,6.831-2.829c1.747-1.747,2.829-4.172,2.829-6.831
					C470.38,314.487,466.052,310.159,460.72,310.159z"/>
				<g>
					<path style="fill:none;stroke:#263238;stroke-linecap:round;stroke-linejoin:round;stroke-miterlimit:10;" d="M439.717,324.786
						c1.278-1.265,2.06-3.025,2.06-4.967c0-3.885-3.142-7.027-7.027-7.027H319.423v-2.633h115.222c5.332,0,9.66,4.328,9.66,9.66
						c0,2.66-1.082,5.085-2.829,6.831c-1.747,1.747-4.172,2.829-6.831,2.829H319.423v-2.633H434.75
						C436.692,326.846,438.452,326.064,439.717,324.786z"/>
					
						<line style="fill:none;stroke:#263238;stroke-linecap:round;stroke-linejoin:round;stroke-miterlimit:10;" x1="322.818" y1="326.846" x2="322.818" y2="312.792"/>
					
						<line style="fill:none;stroke:#263238;stroke-linecap:round;stroke-linejoin:round;stroke-miterlimit:10;" x1="322.818" y1="324.292" x2="408.055" y2="324.292"/>
					
						<line style="fill:none;stroke:#263238;stroke-linecap:round;stroke-linejoin:round;stroke-miterlimit:10;" x1="410.806" y1="324.292" x2="414.244" y2="324.292"/>
					
						<line style="fill:none;stroke:#263238;stroke-linecap:round;stroke-linejoin:round;stroke-miterlimit:10;" x1="430.089" y1="319.819" x2="386.766" y2="319.819"/>
					
						<line style="fill:none;stroke:#263238;stroke-linecap:round;stroke-linejoin:round;stroke-miterlimit:10;" x1="382.984" y1="319.819" x2="374.851" y2="319.819"/>
					
						<line style="fill:none;stroke:#263238;stroke-linecap:round;stroke-linejoin:round;stroke-miterlimit:10;" x1="372.468" y1="319.819" x2="322.818" y2="319.819"/>
					
						<line style="fill:none;stroke:#263238;stroke-linecap:round;stroke-linejoin:round;stroke-miterlimit:10;" x1="326.466" y1="315.879" x2="376.795" y2="315.879"/>
					
						<line style="fill:none;stroke:#263238;stroke-linecap:round;stroke-linejoin:round;stroke-miterlimit:10;" x1="421.465" y1="315.879" x2="423.7" y2="315.879"/>
					<path style="fill:none;stroke:#263238;stroke-linecap:round;stroke-linejoin:round;stroke-miterlimit:10;" d="M438.327,325.866
						c0,0-2.923-2.795-2.923-6.047c0-3.252,2.923-6.042,2.923-6.042"/>
					<path style="fill:none;stroke:#263238;stroke-linecap:round;stroke-linejoin:round;stroke-miterlimit:10;" d="M417.202,310.159
						h43.518c5.332,0,9.66,4.328,9.66,9.66c0,2.66-1.082,5.085-2.829,6.831c-1.747,1.747-4.172,2.829-6.831,2.829h-43.518"/>
				</g>
			</g>
			<g>
				<path style="fill:#FFFFFF;" d="M469.076,332.348v-2.634h-71.704h-17.444h-78.223c-2.66,0-5.085,1.082-6.831,2.829
					c-1.747,1.747-2.829,4.172-2.829,6.831c0,5.332,4.328,9.66,9.66,9.66h78.223h17.444h71.704v-2.633h-3.395v-14.054H469.076z"/>
				<path style="opacity:0.6;fill:#92E3A9;" d="M379.824,332.348h17.548h68.309h3.395v-2.634h-71.704h-17.444h-78.223
					c-2.66,0-5.085,1.082-6.831,2.829c-1.747,1.747-2.829,4.172-2.829,6.831c0,5.332,4.328,9.66,9.66,9.66h78.223h17.444h71.704
					v-2.633h-3.395h-68.309h-17.548c-3.885,0-7.027-3.142-7.027-7.027c0-1.943,0.782-3.703,2.06-4.967
					C376.122,333.13,377.882,332.348,379.824,332.348z"/>
				<path style="opacity:0.6;fill:#92E3A9;" d="M374.857,334.408c-1.278,1.265-2.06,3.025-2.06,4.967
					c0,3.885,3.142,7.027,7.027,7.027h89.252v2.633h-89.148c-5.332,0-9.66-4.328-9.66-9.66c0-2.66,1.082-5.085,2.829-6.831
					c1.747-1.747,4.172-2.829,6.831-2.829h89.148v2.634h-89.252C377.882,332.348,376.122,333.13,374.857,334.408z"/>
				<path style="fill:none;stroke:#263238;stroke-linecap:round;stroke-linejoin:round;stroke-miterlimit:10;" d="M374.857,334.408
					c-1.278,1.265-2.06,3.025-2.06,4.967c0,3.885,3.142,7.027,7.027,7.027h89.252v2.633h-89.148c-5.332,0-9.66-4.328-9.66-9.66
					c0-2.66,1.082-5.085,2.829-6.831c1.747-1.747,4.172-2.829,6.831-2.829h89.148v2.634h-89.252
					C377.882,332.348,376.122,333.13,374.857,334.408z"/>
				
					<line style="fill:none;stroke:#263238;stroke-linecap:round;stroke-linejoin:round;stroke-miterlimit:10;" x1="465.682" y1="332.348" x2="465.682" y2="346.402"/>
				
					<line style="fill:none;stroke:#263238;stroke-linecap:round;stroke-linejoin:round;stroke-miterlimit:10;" x1="465.682" y1="334.902" x2="406.519" y2="334.902"/>
				
					<line style="fill:none;stroke:#263238;stroke-linecap:round;stroke-linejoin:round;stroke-miterlimit:10;" x1="403.768" y1="334.902" x2="400.329" y2="334.902"/>
				
					<line style="fill:none;stroke:#263238;stroke-linecap:round;stroke-linejoin:round;stroke-miterlimit:10;" x1="384.484" y1="339.375" x2="414.771" y2="339.375"/>
				
					<line style="fill:none;stroke:#263238;stroke-linecap:round;stroke-linejoin:round;stroke-miterlimit:10;" x1="418.553" y1="339.375" x2="439.723" y2="339.375"/>
				
					<line style="fill:none;stroke:#263238;stroke-linecap:round;stroke-linejoin:round;stroke-miterlimit:10;" x1="442.106" y1="339.375" x2="465.682" y2="339.375"/>
				
					<line style="fill:none;stroke:#263238;stroke-linecap:round;stroke-linejoin:round;stroke-miterlimit:10;" x1="462.034" y1="343.315" x2="437.779" y2="343.315"/>
				
					<line style="fill:none;stroke:#263238;stroke-linecap:round;stroke-linejoin:round;stroke-miterlimit:10;" x1="393.109" y1="343.315" x2="390.874" y2="343.315"/>
				<path style="fill:none;stroke:#263238;stroke-linecap:round;stroke-linejoin:round;stroke-miterlimit:10;" d="M376.247,333.327
					c0,0,2.923,2.795,2.923,6.047s-2.923,6.042-2.923,6.042"/>
				<path style="fill:none;stroke:#263238;stroke-linecap:round;stroke-linejoin:round;stroke-miterlimit:10;" d="M397.372,349.035
					h-95.666c-5.332,0-9.66-4.328-9.66-9.66c0-2.66,1.082-5.085,2.829-6.831c1.747-1.747,4.172-2.829,6.831-2.829h95.666"/>
			</g>
		</g>
		<g>
			<g>
				<defs>
					<path id="XMLID_504_" d="M50.405,309.943c0,0-13.849-2.042-14.553,6.168c-0.704,8.21,9.041,26.87,23.063,24.23v-4.753
						c0,0-13.675,2.582-17.355-14.978c-2.038-9.721,10.957-4.499,10.957-4.499L50.405,309.943z"/>
				</defs>
				<use xlink:href="#XMLID_504_"  style="overflow:visible;fill:#FFFFFF;"/>
				<clipPath id="XMLID_00000059989689950415736920000013030982441609976706_">
					<use xlink:href="#XMLID_504_"  style="overflow:visible;"/>
				</clipPath>
				<path style="opacity:0.4;clip-path:url(#XMLID_00000059989689950415736920000013030982441609976706_);fill:#92E3A9;" d="
					M50.405,309.943c0,0-13.849-2.042-14.553,6.168c-0.704,8.21,9.041,26.87,23.063,24.23v-4.753c0,0-13.675,2.582-17.355-14.978
					c-2.038-9.721,10.957-4.499,10.957-4.499L50.405,309.943z"/>
				
					<use xlink:href="#XMLID_504_"  style="overflow:visible;fill:none;stroke:#263238;stroke-linecap:round;stroke-linejoin:round;stroke-miterlimit:10;"/>
			</g>
			<g>
				<defs>
					<path id="XMLID_503_" d="M91.658,340.344v0.018c-3.934,3.222-9.238,5.322-16.376,5.322c-30.972,0-27.465-39.676-27.465-39.676
						h54.931C102.747,306.008,104.83,329.522,91.658,340.344z"/>
				</defs>
				<use xlink:href="#XMLID_503_"  style="overflow:visible;fill:#FFFFFF;"/>
				<clipPath id="XMLID_00000057137180198569253820000002101627548183437470_">
					<use xlink:href="#XMLID_503_"  style="overflow:visible;"/>
				</clipPath>
				<path style="opacity:0.4;clip-path:url(#XMLID_00000057137180198569253820000002101627548183437470_);fill:#92E3A9;" d="
					M91.658,340.344v0.018c-3.934,3.222-9.238,5.322-16.376,5.322c-30.972,0-27.465-39.676-27.465-39.676h10.092
					c0,0,1.175,17.444,7.512,25.899C71.74,340.326,91.498,340.344,91.658,340.344z"/>
				
					<use xlink:href="#XMLID_503_"  style="overflow:visible;fill:none;stroke:#263238;stroke-linecap:round;stroke-linejoin:round;stroke-miterlimit:10;"/>
			</g>
			<g>
				<g>
					<defs>
						<polygon id="XMLID_502_" points="98.322,349.035 49.175,349.035 37.045,344.47 110.452,344.47 						"/>
					</defs>
					<use xlink:href="#XMLID_502_"  style="overflow:visible;fill:#FFFFFF;"/>
					<clipPath id="XMLID_00000155837605283744933020000008897528043779526056_">
						<use xlink:href="#XMLID_502_"  style="overflow:visible;"/>
					</clipPath>
					
						<polygon style="opacity:0.4;clip-path:url(#XMLID_00000155837605283744933020000008897528043779526056_);fill:#92E3A9;" points="
						98.322,349.035 49.175,349.035 37.045,344.47 110.452,344.47 					"/>
					
						<use xlink:href="#XMLID_502_"  style="overflow:visible;fill:none;stroke:#263238;stroke-linecap:round;stroke-linejoin:round;stroke-miterlimit:10;"/>
				</g>
				<path style="fill:#FFFFFF;stroke:#263238;stroke-linecap:round;stroke-linejoin:round;stroke-miterlimit:10;" d="
					M113.823,345.31h-80.15c-0.571,0-1.033-0.463-1.033-1.033v-1.612c0-0.571,0.463-1.033,1.033-1.033h80.15
					c0.571,0,1.033,0.463,1.033,1.033v1.612C114.856,344.847,114.394,345.31,113.823,345.31z"/>
			</g>
			<path style="fill:none;stroke:#263238;stroke-linecap:round;stroke-linejoin:round;stroke-miterlimit:10;" d="M73.162,261.18
				c-12.773,10.797,9.252,28.167,0,35.443c0,0,9.057-3.521,3.423-15.492C70.952,269.161,73.162,261.18,73.162,261.18z"/>
		</g>
		
			<line style="fill:none;stroke:#263238;stroke-linecap:round;stroke-linejoin:round;stroke-miterlimit:10;" x1="18.56" y1="349.597" x2="479.044" y2="349.597"/>
	</g>
</g>
<g id="Device">
	<g>
		<path style="fill:#999999;stroke:#263238;stroke-linecap:round;stroke-linejoin:round;stroke-miterlimit:10;" d="M395.643,385.242
			c-73.206,0-219.631,0-291.286,0c-9.833,0-39.114-4.155-39.114-4.155h369.514C434.757,381.087,405.477,385.242,395.643,385.242z"/>
		<path style="fill:#263238;" d="M395.643,370.398H104.357V196.523c0-1.998,1.619-3.617,3.617-3.617h284.052
			c1.998,0,3.617,1.619,3.617,3.617V370.398z"/>
		<path style="fill:#BFBFBF;stroke:#263238;stroke-miterlimit:10;" d="M434.757,381.087H65.243c-1.381,0-1.591-1.987-0.241-2.276
			l39.355-8.413h291.286l39.355,8.413C436.348,379.1,436.138,381.087,434.757,381.087z"/>
		
			<rect x="107.582" y="200.69" style="fill:#FFFFFF;stroke:#263238;stroke-linecap:round;stroke-linejoin:round;stroke-miterlimit:10;" width="284.835" height="157.848"/>
		<path style="fill:#FFFFFF;" d="M256.286,365.396h-12.572c-0.801,0-1.451-0.649-1.451-1.451l0,0c0-0.801,0.649-1.451,1.451-1.451
			h12.572c0.801,0,1.451,0.649,1.451,1.451l0,0C257.737,364.746,257.087,365.396,256.286,365.396z"/>
		<path style="fill:#FFFFFF;" d="M252.077,196.613c0,1.147-0.93,2.077-2.077,2.077c-1.147,0-2.077-0.93-2.077-2.077
			c0-1.147,0.93-2.077,2.077-2.077C251.147,194.536,252.077,195.466,252.077,196.613z"/>
		<polygon style="fill:none;stroke:#263238;stroke-linecap:round;stroke-linejoin:round;stroke-miterlimit:10;" points="
			411.839,375.743 88.161,375.743 105.161,371.743 394.839,371.743 		"/>
		<g>
			<path style="opacity:0.15;fill:#92E3A9;" d="M286.78,201.868c0,0-65.516,88.811-176.956,76.746v-76.746H286.78z"/>
			<path style="opacity:0.3;fill:#92E3A9;" d="M109.824,340.966c0,0,17.308-43.846,108.432-57.692
				c91.124-13.846,162.438-50.341,171.919-71.703V355H109.824V340.966z"/>
			<rect x="109.824" y="201.868" style="opacity:0.5;fill:#92E3A9;" width="280.352" height="5.44"/>
			<g>
				
					<line style="fill:none;stroke:#263238;stroke-linecap:round;stroke-linejoin:round;stroke-miterlimit:10;" x1="109.824" y1="207.308" x2="390.176" y2="207.308"/>
				
					<line style="fill:none;stroke:#263238;stroke-linecap:round;stroke-linejoin:round;stroke-miterlimit:10;" x1="113.67" y1="204.462" x2="121.802" y2="204.462"/>
				
					<line style="fill:none;stroke:#263238;stroke-linecap:round;stroke-linejoin:round;stroke-miterlimit:10;" x1="130.692" y1="204.462" x2="138.011" y2="204.462"/>
				
					<line style="fill:none;stroke:#263238;stroke-linecap:round;stroke-linejoin:round;stroke-miterlimit:10;" x1="147.494" y1="204.462" x2="154.615" y2="204.462"/>
			</g>
			<g style="opacity:0.7;">
				<path style="fill:#92E3A9;" d="M156.388,339.349h-9.016c-1.22,0-2.217,0.998-2.217,2.217v9.016c0,1.22,0.998,2.217,2.217,2.217
					h9.016c1.219,0,2.217-0.998,2.217-2.217v-9.016C158.605,340.347,157.607,339.349,156.388,339.349z"/>
				<path style="fill:#92E3A9;" d="M176.012,339.349h-9.016c-1.22,0-2.217,0.998-2.217,2.217v9.016c0,1.22,0.998,2.217,2.217,2.217
					h9.016c1.22,0,2.217-0.998,2.217-2.217v-9.016C178.229,340.347,177.231,339.349,176.012,339.349z"/>
				<path style="fill:#92E3A9;" d="M195.636,339.349h-9.016c-1.22,0-2.217,0.998-2.217,2.217v9.016c0,1.22,0.998,2.217,2.217,2.217
					h9.016c1.22,0,2.217-0.998,2.217-2.217v-9.016C197.853,340.347,196.855,339.349,195.636,339.349z"/>
				<path style="fill:#92E3A9;" d="M215.26,339.349h-9.016c-1.219,0-2.217,0.998-2.217,2.217v9.016c0,1.22,0.998,2.217,2.217,2.217
					h9.016c1.22,0,2.217-0.998,2.217-2.217v-9.016C217.477,340.347,216.479,339.349,215.26,339.349z"/>
				<path style="fill:#92E3A9;" d="M234.884,339.349h-9.016c-1.219,0-2.217,0.998-2.217,2.217v9.016c0,1.22,0.998,2.217,2.217,2.217
					h9.016c1.22,0,2.217-0.998,2.217-2.217v-9.016C237.101,340.347,236.104,339.349,234.884,339.349z"/>
				<path style="fill:#92E3A9;" d="M254.508,339.349h-9.016c-1.219,0-2.217,0.998-2.217,2.217v9.016c0,1.22,0.998,2.217,2.217,2.217
					h9.016c1.22,0,2.217-0.998,2.217-2.217v-9.016C256.725,340.347,255.727,339.349,254.508,339.349z"/>
				<path style="fill:#92E3A9;" d="M274.132,339.349h-9.016c-1.22,0-2.217,0.998-2.217,2.217v9.016c0,1.22,0.998,2.217,2.217,2.217
					h9.016c1.219,0,2.217-0.998,2.217-2.217v-9.016C276.349,340.347,275.351,339.349,274.132,339.349z"/>
				<path style="fill:#92E3A9;" d="M293.756,339.349h-9.016c-1.22,0-2.217,0.998-2.217,2.217v9.016c0,1.22,0.998,2.217,2.217,2.217
					h9.016c1.22,0,2.217-0.998,2.217-2.217v-9.016C295.973,340.347,294.975,339.349,293.756,339.349z"/>
				<path style="fill:#92E3A9;" d="M313.38,339.349h-9.016c-1.22,0-2.217,0.998-2.217,2.217v9.016c0,1.22,0.998,2.217,2.217,2.217
					h9.016c1.22,0,2.217-0.998,2.217-2.217v-9.016C315.597,340.347,314.599,339.349,313.38,339.349z"/>
				<path style="fill:#92E3A9;" d="M333.004,339.349h-9.016c-1.22,0-2.217,0.998-2.217,2.217v9.016c0,1.22,0.998,2.217,2.217,2.217
					h9.016c1.22,0,2.217-0.998,2.217-2.217v-9.016C335.221,340.347,334.223,339.349,333.004,339.349z"/>
				<path style="fill:#92E3A9;" d="M352.628,339.349h-9.016c-1.22,0-2.217,0.998-2.217,2.217v9.016c0,1.22,0.998,2.217,2.217,2.217
					h9.016c1.22,0,2.217-0.998,2.217-2.217v-9.016C354.845,340.347,353.847,339.349,352.628,339.349z"/>
			</g>
			<path style="opacity:0.5;fill:#92E3A9;" d="M367.692,355v-5.654c0-1.247-1.011-2.258-2.258-2.258h-10.589v3.495
				c0,1.22-0.998,2.217-2.217,2.217h-9.016c-1.22,0-2.217-0.998-2.217-2.217v-3.495h-6.173v3.495c0,1.22-0.998,2.217-2.217,2.217
				h-9.016c-1.22,0-2.217-0.998-2.217-2.217v-3.495h-6.173v3.495c0,1.22-0.998,2.217-2.217,2.217h-9.016
				c-1.22,0-2.217-0.998-2.217-2.217v-3.495h-6.173v3.495c0,1.22-0.998,2.217-2.217,2.217h-9.016c-1.22,0-2.217-0.998-2.217-2.217
				v-3.495h-6.174v3.495c0,1.22-0.998,2.217-2.217,2.217h-9.016c-1.22,0-2.217-0.998-2.217-2.217v-3.495h-6.173v3.495
				c0,1.22-0.998,2.217-2.217,2.217h-9.016c-1.219,0-2.217-0.998-2.217-2.217v-3.495h-6.173v3.495c0,1.22-0.998,2.217-2.217,2.217
				h-9.016c-1.219,0-2.217-0.998-2.217-2.217v-3.495h-6.173v3.495c0,1.22-0.998,2.217-2.217,2.217h-9.016
				c-1.219,0-2.217-0.998-2.217-2.217v-3.495h-6.173v3.495c0,1.22-0.998,2.217-2.217,2.217h-9.016c-1.22,0-2.217-0.998-2.217-2.217
				v-3.495h-6.174v3.495c0,1.22-0.998,2.217-2.217,2.217h-9.016c-1.22,0-2.217-0.998-2.217-2.217v-3.495h-6.173v3.495
				c0,1.22-0.998,2.217-2.217,2.217h-9.016c-1.22,0-2.217-0.998-2.217-2.217v-3.495h-10.589c-1.247,0-2.258,1.011-2.258,2.258V355"
				/>
			<path style="fill:none;stroke:#263238;stroke-linecap:round;stroke-linejoin:round;stroke-miterlimit:10;" d="M367.692,355
				v-5.654c0-1.247-1.011-2.258-2.258-2.258h-10.589v3.495c0,1.22-0.998,2.217-2.217,2.217h-9.016c-1.22,0-2.217-0.998-2.217-2.217
				v-3.495h-6.173v3.495c0,1.22-0.998,2.217-2.217,2.217h-9.016c-1.22,0-2.217-0.998-2.217-2.217v-3.495h-6.173v3.495
				c0,1.22-0.998,2.217-2.217,2.217h-9.016c-1.22,0-2.217-0.998-2.217-2.217v-3.495h-6.173v3.495c0,1.22-0.998,2.217-2.217,2.217
				h-9.016c-1.22,0-2.217-0.998-2.217-2.217v-3.495h-6.174v3.495c0,1.22-0.998,2.217-2.217,2.217h-9.016
				c-1.22,0-2.217-0.998-2.217-2.217v-3.495h-6.173v3.495c0,1.22-0.998,2.217-2.217,2.217h-9.016c-1.219,0-2.217-0.998-2.217-2.217
				v-3.495h-6.173v3.495c0,1.22-0.998,2.217-2.217,2.217h-9.016c-1.219,0-2.217-0.998-2.217-2.217v-3.495h-6.173v3.495
				c0,1.22-0.998,2.217-2.217,2.217h-9.016c-1.219,0-2.217-0.998-2.217-2.217v-3.495h-6.173v3.495c0,1.22-0.998,2.217-2.217,2.217
				h-9.016c-1.22,0-2.217-0.998-2.217-2.217v-3.495h-6.174v3.495c0,1.22-0.998,2.217-2.217,2.217h-9.016
				c-1.22,0-2.217-0.998-2.217-2.217v-3.495h-6.173v3.495c0,1.22-0.998,2.217-2.217,2.217h-9.016c-1.22,0-2.217-0.998-2.217-2.217
				v-3.495h-10.589c-1.247,0-2.258,1.011-2.258,2.258V355"/>
			<g>
				<path style="fill:none;stroke:#263238;stroke-miterlimit:10;" d="M156.388,339.349h-9.016c-1.22,0-2.217,0.998-2.217,2.217
					v9.016c0,1.22,0.998,2.217,2.217,2.217h9.016c1.219,0,2.217-0.998,2.217-2.217v-9.016
					C158.605,340.347,157.607,339.349,156.388,339.349z"/>
				<path style="fill:none;stroke:#263238;stroke-miterlimit:10;" d="M176.012,339.349h-9.016c-1.22,0-2.217,0.998-2.217,2.217
					v9.016c0,1.22,0.998,2.217,2.217,2.217h9.016c1.22,0,2.217-0.998,2.217-2.217v-9.016
					C178.229,340.347,177.231,339.349,176.012,339.349z"/>
				<path style="fill:none;stroke:#263238;stroke-miterlimit:10;" d="M195.636,339.349h-9.016c-1.22,0-2.217,0.998-2.217,2.217
					v9.016c0,1.22,0.998,2.217,2.217,2.217h9.016c1.22,0,2.217-0.998,2.217-2.217v-9.016
					C197.853,340.347,196.855,339.349,195.636,339.349z"/>
				<path style="fill:none;stroke:#263238;stroke-miterlimit:10;" d="M215.26,339.349h-9.016c-1.219,0-2.217,0.998-2.217,2.217
					v9.016c0,1.22,0.998,2.217,2.217,2.217h9.016c1.22,0,2.217-0.998,2.217-2.217v-9.016
					C217.477,340.347,216.479,339.349,215.26,339.349z"/>
				<path style="fill:none;stroke:#263238;stroke-miterlimit:10;" d="M234.884,339.349h-9.016c-1.219,0-2.217,0.998-2.217,2.217
					v9.016c0,1.22,0.998,2.217,2.217,2.217h9.016c1.22,0,2.217-0.998,2.217-2.217v-9.016
					C237.101,340.347,236.104,339.349,234.884,339.349z"/>
				<path style="fill:none;stroke:#263238;stroke-miterlimit:10;" d="M254.508,339.349h-9.016c-1.219,0-2.217,0.998-2.217,2.217
					v9.016c0,1.22,0.998,2.217,2.217,2.217h9.016c1.22,0,2.217-0.998,2.217-2.217v-9.016
					C256.725,340.347,255.727,339.349,254.508,339.349z"/>
				<path style="fill:none;stroke:#263238;stroke-miterlimit:10;" d="M274.132,339.349h-9.016c-1.22,0-2.217,0.998-2.217,2.217
					v9.016c0,1.22,0.998,2.217,2.217,2.217h9.016c1.219,0,2.217-0.998,2.217-2.217v-9.016
					C276.349,340.347,275.351,339.349,274.132,339.349z"/>
				<path style="fill:none;stroke:#263238;stroke-miterlimit:10;" d="M293.756,339.349h-9.016c-1.22,0-2.217,0.998-2.217,2.217
					v9.016c0,1.22,0.998,2.217,2.217,2.217h9.016c1.22,0,2.217-0.998,2.217-2.217v-9.016
					C295.973,340.347,294.975,339.349,293.756,339.349z"/>
				<path style="fill:none;stroke:#263238;stroke-miterlimit:10;" d="M313.38,339.349h-9.016c-1.22,0-2.217,0.998-2.217,2.217v9.016
					c0,1.22,0.998,2.217,2.217,2.217h9.016c1.22,0,2.217-0.998,2.217-2.217v-9.016C315.597,340.347,314.599,339.349,313.38,339.349z
					"/>
				<path style="fill:none;stroke:#263238;stroke-miterlimit:10;" d="M333.004,339.349h-9.016c-1.22,0-2.217,0.998-2.217,2.217
					v9.016c0,1.22,0.998,2.217,2.217,2.217h9.016c1.22,0,2.217-0.998,2.217-2.217v-9.016
					C335.221,340.347,334.223,339.349,333.004,339.349z"/>
				<path style="fill:none;stroke:#263238;stroke-miterlimit:10;" d="M352.628,339.349h-9.016c-1.22,0-2.217,0.998-2.217,2.217
					v9.016c0,1.22,0.998,2.217,2.217,2.217h9.016c1.22,0,2.217-0.998,2.217-2.217v-9.016
					C354.845,340.347,353.847,339.349,352.628,339.349z"/>
			</g>
			<g>
				<path style="fill:#FFFFFF;" d="M322.029,279.003H177.971c-5.589,0-10.119-4.53-10.119-10.119l0,0
					c0-5.589,4.531-10.119,10.119-10.119h144.059c5.589,0,10.119,4.53,10.119,10.119l0,0
					C332.148,274.472,327.618,279.003,322.029,279.003z"/>
				<path style="fill:none;stroke:#263238;stroke-linecap:round;stroke-linejoin:round;stroke-miterlimit:10;" d="M322.029,279.003
					H177.971c-5.589,0-10.119-4.53-10.119-10.119l0,0c0-5.589,4.531-10.119,10.119-10.119h144.059
					c5.589,0,10.119,4.53,10.119,10.119l0,0C332.148,274.472,327.618,279.003,322.029,279.003z"/>
				<g>
					<path style="fill:#263238;" d="M181.326,268.422h-0.034l-0.66,6.311h-2.555l-1.32-11.845h1.811l0.981,9.34h0.034l0.88-9.34
						h1.793l0.914,9.408h0.034l0.948-9.408h1.625l-1.32,11.845h-2.47L181.326,268.422z"/>
					<path style="fill:#263238;" d="M190.855,268.422h-0.034l-0.66,6.311h-2.555l-1.32-11.845h1.811l0.981,9.34h0.034l0.88-9.34
						h1.793l0.914,9.408h0.034l0.948-9.408h1.624l-1.32,11.845h-2.47L190.855,268.422z"/>
					<path style="fill:#263238;" d="M200.383,268.422h-0.034l-0.66,6.311h-2.555l-1.32-11.845h1.811l0.981,9.34h0.034l0.88-9.34
						h1.794l0.914,9.408h0.034l0.948-9.408h1.625l-1.32,11.845h-2.47L200.383,268.422z"/>
					<path style="fill:#263238;" d="M206.883,272.94v1.794h-1.794v-1.794H206.883z"/>
					<path style="fill:#263238;" d="M208.237,262.889h2.944c1.862,0,2.775,1.031,2.775,2.927v5.99c0,1.896-0.913,2.928-2.775,2.928
						h-2.944V262.889z M210.098,264.58v8.461h1.049c0.592,0,0.948-0.305,0.948-1.15v-6.16c0-0.846-0.355-1.15-0.948-1.15H210.098z"
						/>
					<path style="fill:#263238;" d="M214.99,265.73c0-1.895,0.999-2.978,2.826-2.978c1.828,0,2.826,1.084,2.826,2.978v6.16
						c0,1.896-0.998,2.979-2.826,2.979c-1.828,0-2.826-1.083-2.826-2.979V265.73z M216.852,272.009c0,0.847,0.372,1.168,0.964,1.168
						s0.964-0.321,0.964-1.168v-6.396c0-0.847-0.372-1.167-0.964-1.167s-0.964,0.32-0.964,1.167V272.009z"/>
					<path style="fill:#263238;" d="M225.77,271.298h0.034l1.252-8.409h2.589v11.845h-1.76v-8.495h-0.034l-1.252,8.495h-1.76
						l-1.354-8.376h-0.034v8.376h-1.624v-11.845h2.589L225.77,271.298z"/>
					<path style="fill:#263238;" d="M237.025,274.733h-1.878l-0.321-2.149h-2.285l-0.322,2.149h-1.709l1.895-11.845h2.724
						L237.025,274.733z M232.777,270.977h1.794l-0.88-5.99h-0.034L232.777,270.977z"/>
					<path style="fill:#263238;" d="M237.889,262.889h1.861v11.845h-1.861V262.889z"/>
					<path style="fill:#263238;" d="M242.797,266.154h-0.034v8.579h-1.675v-11.845h2.335l1.878,7.09h0.034v-7.09h1.659v11.845
						h-1.913L242.797,266.154z"/>
					<path style="fill:#263238;" d="M250.024,266.154h-0.034v8.579h-1.675v-11.845h2.335l1.878,7.09h0.034v-7.09h1.658v11.845
						h-1.912L250.024,266.154z"/>
					<path style="fill:#263238;" d="M261.582,274.733h-1.878l-0.322-2.149h-2.284l-0.321,2.149h-1.709l1.894-11.845h2.725
						L261.582,274.733z M257.335,270.977h1.793l-0.88-5.99h-0.033L257.335,270.977z"/>
					<path style="fill:#263238;" d="M266.372,271.298h0.034l1.252-8.409h2.589v11.845h-1.76v-8.495h-0.033l-1.253,8.495h-1.76
						l-1.354-8.376h-0.034v8.376h-1.624v-11.845h2.589L266.372,271.298z"/>
					<path style="fill:#263238;" d="M273.464,267.88h2.556v1.692h-2.556v3.469h3.216v1.692h-5.077v-11.845h5.077v1.691h-3.216
						V267.88z"/>
					<path style="fill:#263238;" d="M280.336,262.752c1.811,0,2.741,1.084,2.741,2.978v0.373h-1.76v-0.491
						c0-0.847-0.339-1.167-0.931-1.167c-0.593,0-0.931,0.32-0.931,1.167c0,0.863,0.372,1.506,1.59,2.572
						c1.558,1.371,2.048,2.353,2.048,3.706c0,1.896-0.947,2.979-2.775,2.979c-1.827,0-2.775-1.083-2.775-2.979v-0.728h1.76v0.846
						c0,0.847,0.372,1.15,0.964,1.15c0.593,0,0.965-0.304,0.965-1.15c0-0.863-0.372-1.506-1.591-2.572
						c-1.557-1.37-2.047-2.352-2.047-3.706C277.595,263.836,278.525,262.752,280.336,262.752z"/>
					<path style="fill:#263238;" d="M285.87,272.94v1.794h-1.794v-1.794H285.87z"/>
					<path style="fill:#263238;" d="M292.454,270.316v1.574c0,1.896-0.948,2.979-2.775,2.979c-1.827,0-2.775-1.083-2.775-2.979
						v-6.16c0-1.895,0.948-2.978,2.775-2.978c1.827,0,2.775,1.084,2.775,2.978v1.151h-1.76v-1.27c0-0.847-0.373-1.167-0.965-1.167
						c-0.593,0-0.965,0.32-0.965,1.167v6.396c0,0.847,0.372,1.15,0.965,1.15c0.592,0,0.965-0.304,0.965-1.15v-1.692H292.454z"/>
					<path style="fill:#263238;" d="M293.435,265.73c0-1.895,0.999-2.978,2.826-2.978c1.827,0,2.826,1.084,2.826,2.978v6.16
						c0,1.896-0.999,2.979-2.826,2.979c-1.827,0-2.826-1.083-2.826-2.979V265.73z M295.297,272.009c0,0.847,0.372,1.168,0.965,1.168
						c0.592,0,0.965-0.321,0.965-1.168v-6.396c0-0.847-0.373-1.167-0.965-1.167c-0.593,0-0.965,0.32-0.965,1.167V272.009z"/>
					<path style="fill:#263238;" d="M304.216,271.298h0.034l1.252-8.409h2.589v11.845h-1.76v-8.495h-0.033l-1.253,8.495h-1.76
						l-1.354-8.376h-0.034v8.376h-1.624v-11.845h2.589L304.216,271.298z"/>
				</g>
				<g>
					<path style="fill:none;" d="M322.104,268.89c0.29-0.48,0.44-1.03,0.44-1.6c0-0.84-0.32-1.64-0.92-2.23
						c-0.6-0.6-1.39-0.93-2.23-0.93c-0.85,0-1.64,0.33-2.24,0.93c-0.59,0.59-0.92,1.39-0.92,2.23s0.33,1.64,0.92,2.23
						c1.01,1.01,2.64,1.17,3.84,0.47c0.23-0.12,0.44-0.28,0.63-0.47S321.984,269.12,322.104,268.89z"/>
					<path style="fill:#263238;" d="M326.294,272.78l-3.34-3.34c0.96-1.6,0.76-3.71-0.62-5.09c-0.79-0.79-1.83-1.22-2.94-1.22
						c-1.11,0-2.16,0.43-2.94,1.22c-0.79,0.78-1.22,1.83-1.22,2.94c0,1.11,0.43,2.15,1.22,2.94c0.78,0.79,1.83,1.22,2.94,1.22
						c0.77,0,1.5-0.21,2.14-0.6l3.34,3.34c0.2,0.19,0.45,0.29,0.71,0.29c0.26,0,0.51-0.1,0.71-0.29
						C326.684,273.8,326.684,273.17,326.294,272.78z M320.994,269.99c-1.2,0.7-2.83,0.54-3.84-0.47c-0.59-0.59-0.92-1.39-0.92-2.23
						s0.33-1.64,0.92-2.23c0.6-0.6,1.39-0.93,2.24-0.93c0.84,0,1.63,0.33,2.23,0.93c0.6,0.59,0.92,1.39,0.92,2.23
						c0,0.57-0.15,1.12-0.44,1.6c-0.12,0.23-0.29,0.44-0.48,0.63S321.224,269.87,320.994,269.99z"/>
				</g>
			</g>
		</g>
	</g>
</g>
<g id="Left_hand">
	<g>
		<path style="fill:#FFFFFF;" d="M236.197,404.44c-0.77-3.86-1.35-5.01-7.71-6.56c-5.23-1.27-10.59,0.07-12.32,0.59
			c-0.37,0.11-0.58,0.18-0.58,0.18s-1.56-5.39-2.71-6.84c-1.16-1.44-6.55-15.9-7.12-17.25c-0.23-0.55-1.2-1.51-2.53-2.45
			c-1.89-1.35-4.51-2.66-6.74-2.67h-0.15c-3.82,0.07-17.77-0.88-17.77-0.88s-2.12-3.92-3.85-5.37c-1.73-1.44-8.29-3.08-10.21-2.69
			c-0.18,0.04-0.41,0.12-0.67,0.24c0,0-0.01,0.01-0.02,0.01c-2.58,1.19-8.56,5.91-8.56,5.91s-0.21-0.25-0.55-0.58
			c-0.62-0.59-1.66-1.44-2.54-1.44c-1.22,0-6.39-1.5-8.5-0.42c-0.22,0.11-0.41,0.25-0.56,0.42c-0.9,1.06-4.95,5.38-8.7,9.1
			c-2.68,2.66-5.21,5.02-6.33,5.68c-2.7,1.59-7.34,2.34-10.02,3.13c-2.68,0.8-10.98,8.97-10.98,8.97
			c-7.13,1.41-32.1,2.92-48.69,3.79c-8.91,0.48-25.41,2.77-25.41,2.77l25.92,77.47c0,0,2.07-0.73,5.49-1.91
			c15.04-5.25,56.22-19.49,62.34-20.35c7.52-1.06,11.57-4.72,17.16-5.37c5.6-0.64,10.59-1.46,18.85,0
			c8.26,1.46,20.65-3.98,30.01-6.1c9.36-2.12,13.27-9.22,15.12-12.64c1.84-3.43,4.62-5.66,9.63-7.98c5.01-2.32,6.75-4.82,10.22-6.94
			c3.21-1.96,8.38-5.38,8.54-8.93C236.277,405.03,236.257,404.74,236.197,404.44z M203.227,404.48c0,0-1.05,0.5-1.64-0.06
			c-0.6-0.56-3.54-1.77-3.54-1.77c0.57-1.55-0.44-3.51-1.24-5.12c-0.79-1.62-1.78-4.75-1.78-4.75s3.59,5.1,4.65,5.87
			c1.06,0.78,1.57,0.87,1.57,0.87s0.69,3.29,1.94,4.9C203.197,404.44,203.207,404.46,203.227,404.48z"/>
		<path style="opacity:0.4;fill:#92E3A9;" d="M58.387,395.31c16.59-0.87,41.56-2.38,48.69-3.79c0,0,8.3-8.17,10.98-8.97
			c2.68-0.79,7.32-1.54,10.02-3.13c1.12-0.66,3.65-3.02,6.33-5.68c-3.07,4.62-6.99,10.18-9.38,12.33c-4.4,3.97-5.89,0-5.89,0
			C114.107,394.87,70.847,395.36,58.387,395.31z"/>
		<path style="opacity:0.4;fill:#92E3A9;" d="M143.667,364.22c2.11-1.08,7.28,0.42,8.5,0.42c0.88,0,1.92,0.85,2.54,1.44
			c-1.41,1.19-2.35,2.1-2.35,2.1s-2.5-1.52-5.56-3.53C145.857,364.03,144.747,363.98,143.667,364.22z"/>
		<path style="opacity:0.4;fill:#92E3A9;" d="M163.837,360.74c0.26-0.12,0.49-0.2,0.67-0.24c1.92-0.39,8.48,1.25,10.21,2.69
			c1.73,1.45,3.85,5.37,3.85,5.37s13.95,0.95,17.77,0.88h0.15c1.43,5.35-5.8,7.63-5.8,7.63s-1.76-7.88-8.78-8.29
			c-7.02-0.42-9.36,1.32-9.36,1.32c-0.13-6.47-2.47-7.44-6.7-9.19C165.267,360.67,164.577,360.63,163.837,360.74z"/>
		<path style="opacity:0.4;fill:#92E3A9;" d="M195.027,392.78c0,0,0.99,3.13,1.78,4.75c0.8,1.61,1.81,3.57,1.24,5.12
			c0,0,2.94,1.21,3.54,1.77c-2.22-1.16-6.56-3.19-6.56-3.19c1.38-3.16-2.17-14.93-2.17-14.93s5.93-1.03,10.37-4.7
			c2.66-2.2,1.42-6.44,0-9.49c1.33,0.94,2.3,1.9,2.53,2.45c0.57,1.35,5.96,15.81,7.12,17.25c1.15,1.45,2.71,6.84,2.71,6.84
			s0.21-0.07,0.58-0.18c-3.96,2.17-9.95,5.31-12.98,5.95c-1.25-1.61-1.94-4.9-1.94-4.9s-0.51-0.09-1.57-0.87
			C198.617,397.88,195.027,392.78,195.027,392.78z"/>
		<path style="opacity:0.4;fill:#92E3A9;" d="M232.287,402.95c1.73,0.58,3.01,1.43,3.97,2.38c-0.16,3.55-5.33,6.97-8.54,8.93
			c-3.47,2.12-5.21,4.62-10.22,6.94c-5.01,2.32-7.79,4.55-9.63,7.98c-1.85,3.42-5.76,10.52-15.12,12.64
			c-9.36,2.12-21.75,7.56-30.01,6.1c-8.26-1.46-13.25-0.64-18.85,0c-5.59,0.65-9.64,4.31-17.16,5.37
			c-6.12,0.86-47.3,15.1-62.34,20.35c15.04-16.15,63.17-31.45,70.18-30.62c7.65,0.92,20.57-2.23,26.11-3.32
			c5.54-1.08,6.46-3.39,6.46-3.39c0,1.84-1.97,4.23-1.97,4.23s1.45,1.31,3.29,2.36c1.85,1.06,25.45-4.88,29.59-8.44
			c4.13-3.56,9.84-10.68,11.95-12.3c2.11-1.61,13.88-5.06,15.56-8.28c1.68-3.22-2.11-9.88-2.9-10.93
			C221.867,401.89,224.897,400.44,232.287,402.95z"/>
		<path style="opacity:0.4;fill:#92E3A9;" d="M239.007,412.74v-1.02C239.047,412.35,239.007,412.74,239.007,412.74z"/>
		<g>
			<path style="fill:none;stroke:#263238;stroke-linecap:round;stroke-linejoin:round;stroke-miterlimit:10;" d="M32.975,398.078
				c0,0,63.139-4.393,74.098-6.555c0,0,8.308-8.173,10.985-8.969c2.676-0.796,7.323-1.546,10.021-3.13
				c2.698-1.584,13.49-12.961,15.032-14.788c1.542-1.828,7.709,0,9.058,0c1.349,0,3.083,2.027,3.083,2.027s7.323-5.782,9.251-6.167
				c1.927-0.385,8.48,1.256,10.214,2.698c1.734,1.442,3.854,5.363,3.854,5.363s13.942,0.957,17.763,0.881
				c3.821-0.076,8.863,3.778,9.425,5.127c0.563,1.349,5.959,15.806,7.115,17.25c1.156,1.444,2.713,6.84,2.713,6.84
				s6.537-2.313,12.897-0.771c6.36,1.542,6.938,2.698,7.709,6.552c0.771,3.854-5.011,7.709-8.48,9.829
				c-3.469,2.12-5.203,4.619-10.214,6.938c-5.011,2.319-7.79,4.551-9.636,7.974c-1.846,3.423-5.76,10.527-15.118,12.647
				c-9.358,2.12-21.747,7.561-30.006,6.099c-8.259-1.462-13.254-0.646-18.851,0c-5.597,0.646-9.644,4.306-17.16,5.367
				c-7.516,1.061-67.837,22.26-67.837,22.26"/>
			<path style="fill:none;stroke:#263238;stroke-linecap:round;stroke-linejoin:round;stroke-miterlimit:10;" d="M178.572,368.557
				c-4.113,0.027-7.323,2.297-7.323,2.297"/>
			<path style="fill:none;stroke:#263238;stroke-linecap:round;stroke-linejoin:round;stroke-miterlimit:10;" d="M186.91,370.854
				c2.562,1.181,4.511,8.57,4.511,8.57"/>
			<path style="fill:none;stroke:#263238;stroke-linecap:round;stroke-linejoin:round;stroke-miterlimit:10;" d="M193.989,388.44
				c0,0,1.405,6.996,2.823,9.087s1.225,4.62,1.225,4.62"/>
			<path style="fill:none;stroke:#263238;stroke-linecap:round;stroke-linejoin:round;stroke-miterlimit:10;" d="M193.989,400.775
				c0,0,5.463,2.346,7.26,3.679c1.798,1.332,7.61-3.293,14.34-5.798"/>
			<path style="fill:none;stroke:#263238;stroke-linecap:round;stroke-linejoin:round;stroke-miterlimit:10;" d="M194.565,390.996
				c0,0,1.352-1.11,4.243-1.688c2.891-0.578,5.315-4.914,5.982-7.709"/>
			<path style="fill:none;stroke:#263238;stroke-linecap:round;stroke-linejoin:round;stroke-miterlimit:10;" d="M203.225,404.483
				c-1.267-1.591-1.976-4.962-1.976-4.962s-0.515-0.096-1.572-0.867c-1.057-0.771-4.651-5.872-4.651-5.872"/>
			<path style="fill:none;stroke:#263238;stroke-linecap:round;stroke-linejoin:round;stroke-miterlimit:10;" d="M201.249,399.522
				c0,0,4.978,0.482,7.965-1.927"/>
			<path style="fill:none;stroke:#263238;stroke-linecap:round;stroke-linejoin:round;stroke-miterlimit:10;" d="M155.253,366.663
				c0,0-2.216,1.652-5.782,3.042"/>
			<path style="fill:none;stroke:#263238;stroke-linecap:round;stroke-linejoin:round;stroke-miterlimit:10;" d="M143.741,364.177
				c3.231-0.302,5.73,2.1,6.115,2.486"/>
			<path style="fill:none;stroke:#263238;stroke-linecap:round;stroke-linejoin:round;stroke-miterlimit:10;" d="M164.503,360.496
				c0,0,5.589,1.542,6.745,3.084c1.156,1.542,1.156,3.083,1.156,3.083"/>
			<path style="fill:none;stroke:#263238;stroke-linecap:round;stroke-linejoin:round;stroke-miterlimit:10;" d="M107.073,391.524
				c0,0,5.098,0,8.138-1.927"/>
			<path style="fill:none;stroke:#263238;stroke-linecap:round;stroke-linejoin:round;stroke-miterlimit:10;" d="M143.89,447.923
				c0,0,10.977-3.401,15.41-4.172c4.432-0.771,6.552-4.047,6.552-4.047"/>
			<path style="fill:none;stroke:#263238;stroke-linecap:round;stroke-linejoin:round;stroke-miterlimit:10;" d="M222.126,406.363
				c0,0,2.838,3.703,1.927,7.516"/>
			<path style="fill:none;stroke:#263238;stroke-linecap:round;stroke-linejoin:round;stroke-miterlimit:10;" d="M203.225,410.121
				c0,0,4.465,2.599,5.989,8.961"/>
			<path style="fill:none;stroke:#263238;stroke-linecap:round;stroke-linejoin:round;stroke-miterlimit:10;" d="M155.253,371.973
				c0,0-10.391,11.218-16.277,14.324"/>
			<path style="fill:none;stroke:#263238;stroke-linecap:round;stroke-linejoin:round;stroke-miterlimit:10;" d="M172.405,375.139
				c0,0-10.792,11.374-15.225,13.301"/>
		</g>
	</g>
</g>
<g id="Right_hand">
	<g>
		<path style="fill:#FFFFFF;" d="M263.743,365.33c0.16,3.55,5.33,6.97,8.54,8.93c3.47,2.12,5.21,4.62,10.22,6.94
			c5.01,2.32,7.79,4.55,9.63,7.98c1.85,3.42,5.76,10.52,15.12,12.64c9.36,2.12,21.75,7.56,30.01,6.1c8.26-1.46,13.25-0.64,18.85,0
			c5.59,0.65,9.64,4.31,17.16,5.37c6.12,0.86,47.3,15.1,62.34,20.35c3.42,1.18,5.49,1.91,5.49,1.91l25.92-77.47
			c0,0-6.5-0.29-15.41-0.77c-16.59-0.87-51.56-4.38-58.69-5.79c0,0-8.3-8.17-10.98-8.97c-2.68-0.79-7.32-1.54-10.02-3.13
			c-1.12-0.66-3.65-3.02-6.33-5.68c-3.75-3.72-7.8-8.04-8.7-9.1c-0.15-0.17-0.34-0.31-0.56-0.42c-2.11-1.08-7.28,0.42-8.5,0.42
			c-0.88,0-1.92,0.85-2.54,1.44c-0.34,0.33-0.55,0.58-0.55,0.58s-5.98-4.72-8.56-5.91c-0.01,0-0.02-0.01-0.02-0.01
			c-0.26-0.12-0.49-0.2-0.67-0.24c-1.92-0.39-8.48,1.25-10.21,2.69c-1.73,1.45-3.85,5.37-3.85,5.37s-13.95,0.95-17.77,0.88h-0.15
			c-2.23,0.01-4.85,1.32-6.74,2.67c-1.33,0.94-2.3,1.9-2.53,2.45c-0.57,1.35-5.96,15.81-7.12,17.25c-1.15,1.45-2.71,6.84-2.71,6.84
			s-0.21-0.07-0.58-0.18c-1.73-0.52-7.09-1.86-12.32-0.59c-6.36,1.55-6.94,2.7-7.71,6.56
			C263.743,364.74,263.723,365.03,263.743,365.33z M296.813,364.42c1.25-1.61,1.94-4.9,1.94-4.9s0.51-0.09,1.57-0.87
			c1.06-0.77,4.65-5.87,4.65-5.87s-0.99,3.13-1.78,4.75c-0.8,1.61-1.81,3.57-1.24,5.12c0,0-2.94,1.21-3.54,1.77
			c-0.59,0.56-1.64,0.06-1.64,0.06C296.793,364.46,296.803,364.44,296.813,364.42z"/>
		<path style="opacity:0.4;fill:#92E3A9;" d="M451.613,357.31c-16.59-0.87-51.56-4.38-58.69-5.79c0,0-8.3-8.17-10.98-8.97
			c-2.68-0.79-7.32-1.54-10.02-3.13c-1.12-0.66-3.65-3.02-6.33-5.68c3.07,4.62,6.99,10.18,9.38,12.33c4.4,3.97,5.89,0,5.89,0
			C385.893,354.87,439.153,357.36,451.613,357.31z"/>
		<path style="opacity:0.4;fill:#92E3A9;" d="M356.333,324.22c-2.11-1.08-7.28,0.42-8.5,0.42c-0.88,0-1.92,0.85-2.54,1.44
			c1.41,1.19,2.35,2.1,2.35,2.1s2.5-1.52,5.56-3.53C354.143,324.03,355.253,323.98,356.333,324.22z"/>
		<path style="opacity:0.4;fill:#92E3A9;" d="M336.163,320.74c-0.26-0.12-0.49-0.2-0.67-0.24c-1.92-0.39-8.48,1.25-10.21,2.69
			c-1.73,1.45-3.85,5.37-3.85,5.37s-13.95,0.95-17.77,0.88h-0.15c-1.43,5.35,5.8,7.63,5.8,7.63s1.76-7.88,8.78-8.29
			c7.02-0.42,9.36,1.32,9.36,1.32c0.13-6.47,2.47-7.44,6.7-9.19C334.733,320.67,335.423,320.63,336.163,320.74z"/>
		<path style="opacity:0.4;fill:#92E3A9;" d="M304.973,352.78c0,0-0.99,3.13-1.78,4.75c-0.8,1.61-1.81,3.57-1.24,5.12
			c0,0-2.94,1.21-3.54,1.77c2.22-1.16,6.56-3.19,6.56-3.19c-1.38-3.16,2.17-14.93,2.17-14.93s-5.93-1.03-10.37-4.7
			c-2.66-2.2-1.42-6.44,0-9.49c-1.33,0.94-2.3,1.9-2.53,2.45c-0.57,1.35-5.96,15.81-7.12,17.25c-1.15,1.45-2.71,6.84-2.71,6.84
			s-0.21-0.07-0.58-0.18c3.96,2.17,9.95,5.31,12.98,5.95c1.25-1.61,1.94-4.9,1.94-4.9s0.51-0.09,1.57-0.87
			C301.383,357.88,304.973,352.78,304.973,352.78z"/>
		<path style="opacity:0.4;fill:#92E3A9;" d="M267.713,362.95c-1.73,0.58-3.01,1.43-3.97,2.38c0.16,3.55,5.33,6.97,8.54,8.93
			c3.47,2.12,5.21,4.62,10.22,6.94c5.01,2.32,7.79,4.55,9.63,7.98c1.85,3.42,5.76,10.52,15.12,12.64c9.36,2.12,21.75,7.56,30.01,6.1
			c8.26-1.46,13.25-0.64,18.85,0c5.59,0.65,9.64,4.31,17.16,5.37c6.12,0.86,47.3,15.1,62.34,20.35
			c-15.04-16.15-63.17-31.45-70.18-30.62c-7.65,0.92-20.57-2.23-26.11-3.32c-5.54-1.08-6.46-3.39-6.46-3.39
			c0,1.84,1.97,4.23,1.97,4.23s-1.45,1.31-3.29,2.36c-1.85,1.06-25.45-4.88-29.59-8.44c-4.13-3.56-9.84-10.68-11.95-12.3
			c-2.11-1.61-13.88-5.06-15.56-8.28s2.11-9.88,2.9-10.93C278.133,361.89,275.103,360.44,267.713,362.95z"/>
		<path style="opacity:0.4;fill:#92E3A9;" d="M260.993,372.74v-1.02C260.953,372.35,260.993,372.74,260.993,372.74z"/>
		<g>
			<path style="fill:none;stroke:#263238;stroke-linecap:round;stroke-linejoin:round;stroke-miterlimit:10;" d="M467.025,358.078
				c0,0-63.139-4.393-74.098-6.555c0,0-8.309-8.173-10.985-8.969c-2.677-0.796-7.323-1.546-10.021-3.13
				c-2.698-1.584-13.49-12.961-15.032-14.788c-1.542-1.828-7.709,0-9.058,0c-1.349,0-3.083,2.027-3.083,2.027
				s-7.323-5.782-9.251-6.167c-1.927-0.385-8.48,1.256-10.214,2.698c-1.735,1.442-3.854,5.363-3.854,5.363
				s-13.942,0.957-17.763,0.881c-3.821-0.076-8.863,3.778-9.425,5.127c-0.563,1.349-5.959,15.806-7.115,17.25
				c-1.156,1.444-2.713,6.84-2.713,6.84s-6.537-2.313-12.897-0.771c-6.36,1.542-6.938,2.698-7.709,6.552
				c-0.771,3.854,5.011,7.709,8.48,9.829c3.469,2.12,5.203,4.619,10.214,6.938c5.011,2.319,7.79,4.551,9.636,7.974
				c1.846,3.423,5.76,10.527,15.117,12.647s21.747,7.561,30.006,6.099c8.259-1.462,13.254-0.646,18.851,0
				c5.597,0.646,9.644,4.306,17.16,5.367c7.516,1.061,67.837,22.26,67.837,22.26"/>
			<path style="fill:none;stroke:#263238;stroke-linecap:round;stroke-linejoin:round;stroke-miterlimit:10;" d="M321.428,328.557
				c4.113,0.027,7.323,2.297,7.323,2.297"/>
			<path style="fill:none;stroke:#263238;stroke-linecap:round;stroke-linejoin:round;stroke-miterlimit:10;" d="M313.09,330.854
				c-2.562,1.181-4.511,8.57-4.511,8.57"/>
			<path style="fill:none;stroke:#263238;stroke-linecap:round;stroke-linejoin:round;stroke-miterlimit:10;" d="M306.011,348.44
				c0,0-1.405,6.996-2.823,9.087s-1.225,4.62-1.225,4.62"/>
			<path style="fill:none;stroke:#263238;stroke-linecap:round;stroke-linejoin:round;stroke-miterlimit:10;" d="M306.011,360.775
				c0,0-5.462,2.346-7.26,3.679c-1.798,1.332-7.61-3.293-14.34-5.798"/>
			<path style="fill:none;stroke:#263238;stroke-linecap:round;stroke-linejoin:round;stroke-miterlimit:10;" d="M305.435,350.996
				c0,0-1.352-1.11-4.242-1.688c-2.891-0.578-5.315-4.914-5.982-7.709"/>
			<path style="fill:none;stroke:#263238;stroke-linecap:round;stroke-linejoin:round;stroke-miterlimit:10;" d="M296.775,364.483
				c1.267-1.591,1.976-4.962,1.976-4.962s0.515-0.096,1.572-0.867c1.057-0.771,4.651-5.872,4.651-5.872"/>
			<path style="fill:none;stroke:#263238;stroke-linecap:round;stroke-linejoin:round;stroke-miterlimit:10;" d="M298.751,359.522
				c0,0-4.978,0.482-7.965-1.927"/>
			<path style="fill:none;stroke:#263238;stroke-linecap:round;stroke-linejoin:round;stroke-miterlimit:10;" d="M344.747,326.663
				c0,0,2.216,1.652,5.782,3.042"/>
			<path style="fill:none;stroke:#263238;stroke-linecap:round;stroke-linejoin:round;stroke-miterlimit:10;" d="M356.259,324.177
				c-3.231-0.302-5.73,2.1-6.115,2.486"/>
			<path style="fill:none;stroke:#263238;stroke-linecap:round;stroke-linejoin:round;stroke-miterlimit:10;" d="M335.497,320.496
				c0,0-5.589,1.542-6.745,3.084c-1.156,1.542-1.156,3.083-1.156,3.083"/>
			<path style="fill:none;stroke:#263238;stroke-linecap:round;stroke-linejoin:round;stroke-miterlimit:10;" d="M392.927,351.524
				c0,0-5.098,0-8.138-1.927"/>
			<path style="fill:none;stroke:#263238;stroke-linecap:round;stroke-linejoin:round;stroke-miterlimit:10;" d="M356.11,407.923
				c0,0-10.977-3.401-15.41-4.172c-4.432-0.771-6.552-4.047-6.552-4.047"/>
			<path style="fill:none;stroke:#263238;stroke-linecap:round;stroke-linejoin:round;stroke-miterlimit:10;" d="M277.874,366.363
				c0,0-2.838,3.703-1.927,7.516"/>
			<path style="fill:none;stroke:#263238;stroke-linecap:round;stroke-linejoin:round;stroke-miterlimit:10;" d="M296.775,370.121
				c0,0-4.465,2.599-5.988,8.961"/>
			<path style="fill:none;stroke:#263238;stroke-linecap:round;stroke-linejoin:round;stroke-miterlimit:10;" d="M344.747,331.973
				c0,0,10.391,11.218,16.277,14.324"/>
			<path style="fill:none;stroke:#263238;stroke-linecap:round;stroke-linejoin:round;stroke-miterlimit:10;" d="M327.595,335.139
				c0,0,10.792,11.374,15.225,13.301"/>
		</g>
	</g>
</g>
</svg>
